<?xml version="1.0" standalone="no"?>
<!DOCTYPE svg PUBLIC "-//W3C//DTD SVG 20010904//EN"
 "http://www.w3.org/TR/2001/REC-SVG-20010904/DTD/svg10.dtd">
<svg version="1.0" xmlns="http://www.w3.org/2000/svg"
 width="354.000000pt" height="354.000000pt" viewBox="0 0 354.000000 354.000000"
 preserveAspectRatio="xMidYMid meet">
<metadata>
Created by potrace 1.14, written by Peter Selinger 2001-2017
</metadata>
<g transform="translate(0.000000,354.000000) scale(0.100000,-0.100000)"
fill="#000000" stroke="none">
<path d="M582 2718 c-14 -51 -8 -159 14 -283 9 -47 67 -214 90 -254 13 -24 24
-53 24 -65 0 -20 -1 -20 -21 4 -11 14 -26 39 -34 56 -8 17 -21 36 -29 44 -9 7
-16 18 -16 25 0 8 -3 15 -7 17 -8 3 -57 95 -59 107 0 3 -7 22 -16 41 -9 19
-21 46 -26 60 -9 21 -10 17 -7 -25 5 -65 13 -103 27 -129 6 -12 10 -22 9 -24
-6 -6 34 -95 94 -212 11 -21 30 -49 42 -62 13 -14 19 -28 14 -36 -5 -8 -30 11
-79 60 -40 39 -72 65 -72 58 0 -21 68 -152 95 -184 54 -62 18 -62 -53 0 -85
74 -59 30 39 -69 92 -90 92 -90 70 -108 l-21 -17 35 -22 c39 -24 43 -35 18
-44 -14 -6 -13 -9 8 -24 13 -9 27 -16 32 -14 4 1 7 -2 7 -6 0 -14 31 -45 70
-72 19 -13 48 -39 63 -57 16 -18 37 -33 47 -33 11 0 38 -18 60 -39 23 -22 58
-47 78 -56 21 -10 44 -27 54 -38 15 -20 15 -22 -17 -54 -38 -38 -90 -62 -149
-69 -23 -3 -66 -12 -98 -20 -31 -8 -89 -16 -129 -19 -64 -5 -87 -12 -194 -66
-119 -60 -205 -95 -256 -104 -15 -3 -38 -9 -51 -15 -25 -10 136 -8 202 3 l35
6 -24 -17 c-30 -21 -165 -71 -206 -76 -31 -4 -91 -15 -128 -22 -11 -2 -22 -6
-25 -9 -8 -7 24 -6 102 5 69 10 99 3 74 -17 -7 -6 -26 -14 -43 -16 -16 -3 -40
-8 -52 -11 -11 -2 -43 -8 -70 -11 -92 -14 -82 -26 17 -20 102 6 163 18 305 59
50 14 110 28 135 31 25 3 60 8 78 11 18 3 57 7 86 9 29 2 68 7 87 10 18 3 54
8 78 11 100 10 230 46 329 92 l53 24 112 -42 c190 -72 320 -66 463 20 l82 49
68 -20 c51 -16 108 -22 214 -26 138 -5 181 -1 290 27 52 13 59 15 160 35 41 8
120 32 176 54 57 23 109 38 121 35 11 -3 24 -1 27 5 4 6 17 11 30 11 28 0 139
36 186 60 156 81 156 80 123 98 -14 8 -10 13 23 35 89 58 205 190 185 210 -6
6 -20 1 -39 -15 -16 -13 -91 -55 -168 -92 -193 -94 -192 -94 -259 -105 -120
-20 -141 -23 -215 -27 -41 -2 -95 -7 -120 -10 -81 -10 -242 -12 -274 -3 -17 5
-56 10 -86 13 -126 10 -232 46 -263 90 -48 68 -66 80 -126 80 -74 0 -126 -11
-181 -38 -50 -25 -47 -26 -206 26 -110 35 -160 70 -303 214 -122 123 -135 135
-176 160 -16 10 -32 21 -35 24 -3 3 -27 23 -55 45 -72 58 -161 149 -180 184
-8 17 -20 31 -25 31 -5 0 -12 11 -16 25 -3 14 -10 25 -14 25 -8 0 -59 99 -79
155 -16 45 -52 176 -56 210 -3 17 -11 48 -19 70 -8 22 -17 55 -21 73 -4 17
-11 32 -15 32 -5 0 -13 -15 -18 -32z"/>
<path d="M150 966 c0 -2 9 -6 20 -9 11 -3 20 -1 20 4 0 5 -9 9 -20 9 -11 0
-20 -2 -20 -4z"/>
</g>
</svg>
